<svg width="40" height="40" viewBox="0 0 40 40" fill="none" xmlns="http://www.w3.org/2000/svg">
<rect width="40" height="40" fill="#D6FF09"/>
<path d="M11.7367 16.5078L11.5609 18.1953C11.8012 18.1074 12.0619 18.0459 12.3432 18.0107C12.6303 17.9697 12.8852 17.9492 13.1078 17.9492C13.307 17.9492 13.5414 17.9727 13.8109 18.0195C14.0688 18.0664 14.3295 18.1484 14.5932 18.2656C14.8568 18.377 15.1146 18.5264 15.3666 18.7139C15.6068 18.8896 15.8295 19.1211 16.0346 19.4082C16.2279 19.6895 16.3832 20.0205 16.5004 20.4014C16.6176 20.7822 16.6762 21.2188 16.6762 21.7109C16.6762 22.2676 16.6176 22.7656 16.5004 23.2051C16.2602 24.0547 15.8617 24.7051 15.3051 25.1562C15.018 25.3906 14.7279 25.5693 14.435 25.6924C14.1303 25.8271 13.8109 25.9238 13.477 25.9824C13.1488 26.041 12.8266 26.0703 12.5102 26.0703C12.1645 26.0703 11.8012 26.0234 11.4203 25.9297C11.0395 25.8359 10.6762 25.6982 10.3305 25.5166C9.99063 25.3291 9.68887 25.0977 9.4252 24.8223C9.16152 24.5469 8.98281 24.2188 8.88906 23.8379C8.85391 23.6973 8.83633 23.5566 8.83633 23.416C8.83633 23.1113 8.92422 22.8506 9.1 22.6338C9.27578 22.417 9.53359 22.3086 9.87344 22.3086C10.1137 22.3086 10.3363 22.376 10.5414 22.5107C10.7523 22.6455 10.9281 22.8535 11.0688 23.1348C11.1625 23.3047 11.3324 23.4658 11.5785 23.6182C11.8305 23.7646 12.1527 23.8379 12.5453 23.8379C13.184 23.8379 13.6264 23.6562 13.8725 23.293C14.1244 22.9297 14.2504 22.4902 14.2504 21.9746C14.2504 21.4297 14.0746 21.0166 13.723 20.7354C13.3715 20.4482 12.9613 20.3047 12.4926 20.3047C12.2641 20.3047 12.0209 20.3457 11.7631 20.4277C11.5053 20.5039 11.2475 20.583 10.9896 20.665C10.7318 20.7412 10.4828 20.7793 10.2426 20.7793C9.94375 20.7793 9.68008 20.7061 9.45156 20.5596C9.22891 20.4072 9.11758 20.1406 9.11758 19.7598L9.62734 14.9258C9.65664 14.6211 9.74746 14.3398 9.89981 14.082C10.058 13.8242 10.3246 13.6953 10.6996 13.6953H14.2152C14.5434 13.6953 14.848 13.7246 15.1293 13.7832C15.4164 13.8359 15.6479 13.9502 15.8236 14.126C16.0053 14.2959 16.0961 14.5566 16.0961 14.9082C16.0961 15.2656 16.0053 15.5322 15.8236 15.708C15.6479 15.8838 15.4164 16.001 15.1293 16.0596C14.848 16.1123 14.5434 16.1387 14.2152 16.1387H12.1059C11.9887 16.1387 11.9008 16.1592 11.8422 16.2002C11.7836 16.2354 11.7484 16.3379 11.7367 16.5078ZM21.9734 18.1875C22.1714 18.1875 22.3693 18.2552 22.5672 18.3906C22.8589 18.5885 23.0047 18.8281 23.0047 19.1094C23.0047 19.2812 22.963 19.4609 22.8797 19.6484C22.7964 19.8359 22.6922 20.0156 22.5672 20.1875L21.1766 22.0938L22.5672 23.9844C22.687 24.1667 22.7885 24.349 22.8719 24.5312C22.9604 24.7135 23.0047 24.8906 23.0047 25.0625C23.0047 25.3542 22.8589 25.599 22.5672 25.7969C22.3536 25.9323 22.1609 26 21.9891 26C21.7651 26 21.5698 25.9115 21.4031 25.7344C21.2365 25.5573 21.0724 25.3594 20.9109 25.1406L19.9734 23.8281L19.0047 25.1406C18.8693 25.3646 18.713 25.5651 18.5359 25.7422C18.3641 25.9141 18.1714 26 17.9578 26C17.7859 26 17.5932 25.9323 17.3797 25.7969C17.088 25.5938 16.9422 25.349 16.9422 25.0625C16.9422 24.8906 16.9839 24.7135 17.0672 24.5312C17.1557 24.349 17.2599 24.1667 17.3797 23.9844L18.6922 22.0938L17.3797 20.1875C17.2599 20.0052 17.1557 19.8255 17.0672 19.6484C16.9839 19.4714 16.9422 19.2969 16.9422 19.125C16.9422 18.8385 17.088 18.5938 17.3797 18.3906C17.5932 18.2552 17.7859 18.1875 17.9578 18.1875C18.1714 18.1875 18.3641 18.2734 18.5359 18.4453C18.7078 18.6172 18.8641 18.8125 19.0047 19.0312L19.9734 20.3438L20.9109 19.0312C21.062 18.8125 21.2208 18.6172 21.3875 18.4453C21.5542 18.2734 21.7495 18.1875 21.9734 18.1875ZM26.3824 16.5078L26.2066 18.1953C26.4469 18.1074 26.7076 18.0459 26.9889 18.0107C27.276 17.9697 27.5309 17.9492 27.7535 17.9492C27.9527 17.9492 28.1871 17.9727 28.4566 18.0195C28.7145 18.0664 28.9752 18.1484 29.2389 18.2656C29.5025 18.377 29.7604 18.5264 30.0123 18.7139C30.2525 18.8896 30.4752 19.1211 30.6803 19.4082C30.8736 19.6895 31.0289 20.0205 31.1461 20.4014C31.2633 20.7822 31.3219 21.2188 31.3219 21.7109C31.3219 22.2676 31.2633 22.7656 31.1461 23.2051C30.9059 24.0547 30.5074 24.7051 29.9508 25.1562C29.6637 25.3906 29.3736 25.5693 29.0807 25.6924C28.776 25.8271 28.4566 25.9238 28.1227 25.9824C27.7945 26.041 27.4723 26.0703 27.1559 26.0703C26.8102 26.0703 26.4469 26.0234 26.066 25.9297C25.6852 25.8359 25.3219 25.6982 24.9762 25.5166C24.6363 25.3291 24.3346 25.0977 24.0709 24.8223C23.8072 24.5469 23.6285 24.2188 23.5348 23.8379C23.4996 23.6973 23.482 23.5566 23.482 23.416C23.482 23.1113 23.5699 22.8506 23.7457 22.6338C23.9215 22.417 24.1793 22.3086 24.5191 22.3086C24.7594 22.3086 24.982 22.376 25.1871 22.5107C25.398 22.6455 25.5738 22.8535 25.7145 23.1348C25.8082 23.3047 25.9781 23.4658 26.2242 23.6182C26.4762 23.7646 26.7984 23.8379 27.191 23.8379C27.8297 23.8379 28.2721 23.6562 28.5182 23.293C28.7701 22.9297 28.8961 22.4902 28.8961 21.9746C28.8961 21.4297 28.7203 21.0166 28.3688 20.7354C28.0172 20.4482 27.607 20.3047 27.1383 20.3047C26.9098 20.3047 26.6666 20.3457 26.4088 20.4277C26.151 20.5039 25.8932 20.583 25.6354 20.665C25.3775 20.7412 25.1285 20.7793 24.8883 20.7793C24.5895 20.7793 24.3258 20.7061 24.0973 20.5596C23.8746 20.4072 23.7633 20.1406 23.7633 19.7598L24.273 14.9258C24.3023 14.6211 24.3932 14.3398 24.5455 14.082C24.7037 13.8242 24.9703 13.6953 25.3453 13.6953H28.8609C29.1891 13.6953 29.4938 13.7246 29.775 13.7832C30.0621 13.8359 30.2936 13.9502 30.4693 14.126C30.651 14.2959 30.7418 14.5566 30.7418 14.9082C30.7418 15.2656 30.651 15.5322 30.4693 15.708C30.2936 15.8838 30.0621 16.001 29.775 16.0596C29.4938 16.1123 29.1891 16.1387 28.8609 16.1387H26.7516C26.6344 16.1387 26.5465 16.1592 26.4879 16.2002C26.4293 16.2354 26.3941 16.3379 26.3824 16.5078Z" fill="black"/>
</svg>
