<svg width="100" height="100" viewBox="0 0 100 100" fill="none" xmlns="http://www.w3.org/2000/svg">
<rect width="100" height="100" fill="#FF0000"/>
<path d="M35.3166 88.6C33.8499 88.6 32.4832 88.3 31.2166 87.7C29.9499 87.0867 28.8566 86.2467 27.9366 85.18C27.0299 84.1133 26.3766 82.8733 25.9766 81.46L30.6166 80.22C30.8032 80.9933 31.1432 81.66 31.6366 82.22C32.1432 82.78 32.7299 83.2133 33.3966 83.52C34.0766 83.8267 34.7766 83.98 35.4966 83.98C36.4299 83.98 37.2832 83.7533 38.0566 83.3C38.8299 82.8467 39.4432 82.24 39.8966 81.48C40.3499 80.7067 40.5766 79.8533 40.5766 78.92C40.5766 77.9867 40.3432 77.14 39.8766 76.38C39.4232 75.6067 38.8099 75 38.0366 74.56C37.2632 74.1067 36.4166 73.88 35.4966 73.88C34.3899 73.88 33.4699 74.08 32.7366 74.48C32.0166 74.88 31.4632 75.3067 31.0766 75.76L26.9566 74.44L27.8366 59.2H43.4766V63.72H30.4166L32.2166 62.02L31.5766 72.62L30.6966 71.54C31.4432 70.86 32.3099 70.3533 33.2966 70.02C34.2832 69.6867 35.2366 69.52 36.1566 69.52C37.9566 69.52 39.5499 69.9333 40.9366 70.76C42.3366 71.5733 43.4299 72.6867 44.2166 74.1C45.0166 75.5133 45.4166 77.12 45.4166 78.92C45.4166 80.72 44.9499 82.3533 44.0166 83.82C43.0832 85.2733 41.8499 86.4333 40.3166 87.3C38.7966 88.1667 37.1299 88.6 35.3166 88.6ZM47.8141 88L55.7141 77.08L47.9741 66.4H53.6541L58.5141 73.3L63.2941 66.4H68.9741L61.2341 77.08L69.1741 88H63.4941L58.5141 80.86L53.4941 88H47.8141ZM80.9025 88.6C79.4358 88.6 78.0692 88.3 76.8025 87.7C75.5358 87.0867 74.4425 86.2467 73.5225 85.18C72.6158 84.1133 71.9625 82.8733 71.5625 81.46L76.2025 80.22C76.3892 80.9933 76.7292 81.66 77.2225 82.22C77.7292 82.78 78.3158 83.2133 78.9825 83.52C79.6625 83.8267 80.3625 83.98 81.0825 83.98C82.0158 83.98 82.8692 83.7533 83.6425 83.3C84.4158 82.8467 85.0292 82.24 85.4825 81.48C85.9358 80.7067 86.1625 79.8533 86.1625 78.92C86.1625 77.9867 85.9292 77.14 85.4625 76.38C85.0092 75.6067 84.3958 75 83.6225 74.56C82.8492 74.1067 82.0025 73.88 81.0825 73.88C79.9758 73.88 79.0558 74.08 78.3225 74.48C77.6025 74.88 77.0492 75.3067 76.6625 75.76L72.5425 74.44L73.4225 59.2H89.0625V63.72H76.0025L77.8025 62.02L77.1625 72.62L76.2825 71.54C77.0292 70.86 77.8958 70.3533 78.8825 70.02C79.8692 69.6867 80.8225 69.52 81.7425 69.52C83.5425 69.52 85.1358 69.9333 86.5225 70.76C87.9225 71.5733 89.0158 72.6867 89.8025 74.1C90.6025 75.5133 91.0025 77.12 91.0025 78.92C91.0025 80.72 90.5358 82.3533 89.6025 83.82C88.6692 85.2733 87.4358 86.4333 85.9025 87.3C84.3825 88.1667 82.7158 88.6 80.9025 88.6Z" fill="white"/>
</svg>
